<?xml version="1.0" encoding="UTF-8" standalone="no"?>
<!-- Created with Inkscape (http://www.inkscape.org/) -->

<svg
   xmlns:dc="http://purl.org/dc/elements/1.1/"
   xmlns:cc="http://creativecommons.org/ns#"
   xmlns:rdf="http://www.w3.org/1999/02/22-rdf-syntax-ns#"
   xmlns:svg="http://www.w3.org/2000/svg"
   xmlns="http://www.w3.org/2000/svg"
   xmlns:sodipodi="http://sodipodi.sourceforge.net/DTD/sodipodi-0.dtd"
   xmlns:inkscape="http://www.inkscape.org/namespaces/inkscape"
   width="100mm"
   height="100mm"
   viewBox="0 0 100 100"
   version="1.1"
   id="svg91"
   sodipodi:docname="drawing.svg"
   inkscape:version="0.92.1 r15371">
  <defs
     id="defs85" />
  <sodipodi:namedview
     id="base"
     pagecolor="#ffffff"
     bordercolor="#666666"
     borderopacity="1.0"
     inkscape:pageopacity="0.0"
     inkscape:pageshadow="2"
     inkscape:zoom="0.5"
     inkscape:cx="1144.6731"
     inkscape:cy="-212.32928"
     inkscape:document-units="mm"
     inkscape:current-layer="layer1"
     showgrid="false"
     inkscape:window-width="1855"
     inkscape:window-height="1056"
     inkscape:window-x="65"
     inkscape:window-y="24"
     inkscape:window-maximized="1" />
  <metadata
     id="metadata88">
    <rdf:RDF>
      <cc:Work
         rdf:about="">
        <dc:format>image/svg+xml</dc:format>
        <dc:type
           rdf:resource="http://purl.org/dc/dcmitype/StillImage" />
        <dc:title></dc:title>
      </cc:Work>
    </rdf:RDF>
  </metadata>
  <g
     inkscape:label="Layer 1"
     inkscape:groupmode="layer"
     id="layer1"
     transform="translate(0,-197)">
    <g
       style="display:block"
       id="svgg"
       transform="matrix(0.26458333,0,0,0.26458333,-1.0370943,196.19053)">
      <path
         id="path0"
         d="m 219.551,38.826 c 7.71,2.544 9.689,6.063 13.351,23.744 2.251,10.868 0.758,15.482 -6.148,19.005 -6.927,3.534 -14.221,0.519 -17.898,-7.4 -1.575,-3.39 -2.051,-2.588 -0.554,0.934 4.146,9.756 15.448,11.677 22.979,3.907 3.999,-4.127 4.651,-8.515 2.508,-16.88 -0.383,-1.495 -1.431,-5.689 -2.328,-9.32 -2.351,-9.518 -6.411,-14.029 -13.597,-15.106 -2.461,-0.369 -2.11,-0.137 1.687,1.116 m -8.677,0.137 c -7.374,4.068 -9.381,9.982 -6.883,20.28 1.782,7.343 2.164,6.015 0.583,-2.029 -1.899,-9.668 -0.168,-13.929 7.144,-17.577 1.672,-0.834 2.515,-1.52 1.874,-1.524 -0.641,-0.004 -1.864,0.378 -2.718,0.85 m 88.543,12.46 c -5.133,1.794 -14.148,13.337 -18.859,24.148 -3.435,7.884 3.069,19.359 10.847,19.134 1.189,-0.034 0.652,-0.409 -1.585,-1.107 -10.887,-3.396 -12.39,-13.364 -3.888,-25.777 1.223,-1.785 2.223,-3.465 2.223,-3.732 0,-0.267 1.365,-2.495 3.033,-4.951 10.504,-15.468 31.161,-3.569 22.733,13.095 -6.259,12.377 -11.863,19.585 -16.389,21.083 -1.526,0.505 -2.364,1.056 -1.862,1.225 5.295,1.78 21.223,-20.256 21.223,-29.36 0,-9.16 -9.418,-16.575 -17.476,-13.758 m -93.525,15.373 c -0.024,1.068 0.296,2.466 0.71,3.107 0.988,1.529 0.988,-1.196 0,-3.495 -0.611,-1.423 -0.671,-1.39 -0.71,0.388 m -65.561,24.008 c -5.808,2.961 -8.686,8.656 -7.509,14.861 1.287,6.788 3.902,9.075 22.129,19.362 14.967,8.446 29.103,-11.681 15.968,-22.734 -3.088,-2.598 -19.246,-12.205 -20.46,-12.165 -0.52,0.017 0.104,0.589 1.386,1.27 6.136,3.263 17.348,10.514 19.478,12.595 9.08,8.878 1.886,22.755 -11.38,21.953 -2.098,-0.127 -19.21,-9.944 -22.347,-12.82 -8.724,-7.998 -3.937,-21.095 8.423,-23.046 l 3.496,-0.552 -3.137,-0.104 c -1.749,-0.058 -4.425,0.553 -6.047,1.38 m 99.281,7.829 c -2.442,0.443 -1.624,0.588 3.818,0.674 3.809,0.061 6.78,-0.019 6.602,-0.178 -0.771,-0.689 -7.577,-1.013 -10.42,-0.496 m -11.262,1.602 c -0.835,0.569 -0.285,0.646 1.941,0.273 3.853,-0.645 4.473,-1.094 1.489,-1.079 -1.246,0.007 -2.79,0.369 -3.43,0.806 m 27.184,-0.041 c 2.97,0.951 5.355,0.951 3.883,0 -0.64,-0.414 -2.213,-0.723 -3.495,-0.687 -2.283,0.064 -2.291,0.078 -0.388,0.687 m -32.621,1.554 c -1.544,0.997 0.396,0.997 2.718,0 l 1.553,-0.668 -1.553,-0.043 c -0.854,-0.023 -2.078,0.296 -2.718,0.711 m 38.835,0 c 0.64,0.414 1.755,0.758 2.477,0.764 3.859,0.035 20.134,10.368 24.98,15.859 4.751,5.384 7.904,9.365 8.864,11.193 0.602,1.147 1.615,3.08 2.25,4.295 0.635,1.214 1.305,2.058 1.488,1.875 3.036,-3.036 -17.342,-24.495 -28.797,-30.325 -6.795,-3.457 -15.151,-6.174 -11.262,-3.661 m -47.767,3.898 c -14.63,8.027 -26.866,22.608 -31.464,37.496 l -1.609,5.208 h -6.822 c -14.503,0 -26.46,3.403 -39.504,11.242 -5.903,3.549 -5.945,3.56 -9.867,2.684 -9.388,-2.096 -27.674,0.345 -38.524,5.142 -37.43,16.55 -54.384,57.011 -40.014,95.495 1.172,3.138 1.895,7.261 2.215,12.624 2.516,42.167 46.64,73.628 85.346,60.854 2.509,-0.828 3.168,-0.631 10.145,3.042 28.128,14.809 61.835,9.069 81.13,-13.814 2.325,-2.756 4.094,-4.032 6.561,-4.732 4.103,-1.165 5.029,-1.544 11.865,-4.862 10.658,-5.172 21.117,-14.38 27.548,-24.251 2.485,-3.814 3.984,-5.314 5.96,-5.967 6.281,-2.072 9.542,-10.462 6.936,-17.846 -0.83,-2.355 -1.166,-6.559 -1.169,-14.661 -0.002,-6.247 -0.358,-12.756 -0.79,-14.465 -1.584,-6.266 -4.228,-14.051 -5.665,-16.678 l -1.475,-2.697 1.812,-1.186 c 22.233,-14.554 33.568,-37.434 30.978,-62.534 -0.697,-6.755 -3.443,-17.319 -4.848,-18.653 -0.568,-0.538 -0.637,-0.3 -0.226,0.777 4.423,11.6 5.805,28.957 3.093,38.878 -0.694,2.539 -1.529,5.686 -1.856,6.993 -2.583,10.329 -22.341,33.741 -28.475,33.741 -0.125,0 -1.557,-2.009 -3.182,-4.465 -1.624,-2.456 -5.313,-6.953 -8.197,-9.993 -6.186,-6.523 -6.067,-6.061 -2.074,-8.098 16.934,-8.639 23.889,-32.977 14.32,-50.115 -11.995,-21.485 -41.02,-25.517 -58.422,-8.115 -3.751,3.751 -8.775,11.849 -8.775,14.144 0,3.441 -1.799,3.951 -6.445,1.826 -4.574,-2.092 -9.083,-3.272 -15.513,-4.058 -4.521,-0.553 -4.905,-1.095 -3.683,-5.19 4.417,-14.795 17.138,-29.644 32.153,-37.531 3.467,-1.821 5.779,-3.29 5.139,-3.265 -0.641,0.026 -3.612,1.389 -6.602,3.03 m 128.543,18.192 c -10.761,2.758 -13.411,3.915 -16.399,7.161 -7.507,8.154 -2.451,21.547 8.534,22.602 3.667,0.353 20.524,-2.953 17.884,-3.507 -0.685,-0.143 -3.911,0.454 -7.171,1.328 -11.968,3.207 -18.696,0.703 -21.477,-7.994 -3.169,-9.91 2.995,-15.059 23.701,-19.801 20.056,-4.593 29.061,17.394 10.112,24.686 -2.157,0.83 -3.353,1.527 -2.657,1.549 8.954,0.287 16.282,-11.381 12.413,-19.765 -4.117,-8.92 -9.394,-10.245 -24.94,-6.259 m -89.725,3.892 c 31.46,8.194 36.526,52.737 7.606,66.886 l -4.186,2.048 -4.072,-2.704 c -2.239,-1.487 -5.521,-3.443 -7.293,-4.347 -1.772,-0.903 -3.77,-2.431 -4.44,-3.395 -9.583,-13.773 -18.117,-22.269 -27.94,-27.812 l -4.209,-2.376 1.196,-4.034 c 5.385,-18.164 24.872,-29.076 43.338,-24.266 m -63.844,48.132 c 13.393,4.202 31.628,21.279 31.628,29.621 0,1.255 3.691,4.226 5.251,4.226 6.599,0 20.419,11.602 26.054,21.874 15.112,27.548 -6.257,65.893 -36.721,65.893 -1.715,0 -2.508,0.798 -4.73,4.763 -13.214,23.575 -47.247,26.438 -65.16,5.481 l -3.024,-3.538 -2.971,1.942 c -2.953,1.929 -6.898,3.66 -13.316,5.843 -3.744,1.273 -17.118,1.109 -21.888,-0.268 C 85.292,306.276 74.37,291.131 74.217,270.291 74.152,261.402 73.975,260.255 72.114,256.699 52.86,219.907 90.359,176.029 129.32,189.763 l 6.214,2.19 4.66,-4.537 c 6.511,-6.34 16.245,-11.194 26.02,-12.976 3.762,-0.686 19.073,0.272 22.741,1.422 m 135.123,22.732 c 0.747,0.195 1.971,0.195 2.718,0 0.748,-0.196 0.136,-0.356 -1.359,-0.356 -1.495,0 -2.107,0.16 -1.359,0.356 m -5.354,1.318 c -8.412,4.674 -9.817,15.778 -2.832,22.365 2.866,2.703 20.032,13.063 21.644,13.063 0.694,0 -0.608,-0.99 -2.894,-2.199 -6.603,-3.493 -15.303,-9.097 -18.159,-11.696 -6.71,-6.106 -4.962,-16.59 3.517,-21.097 1.495,-0.794 2.194,-1.426 1.553,-1.403 -0.64,0.023 -1.914,0.459 -2.829,0.967 m 15.029,1.996 c 15.993,8.719 20.424,13.006 20.419,19.76 -0.004,5.802 -2.836,10 -8.525,12.638 -1.077,0.499 -1.503,0.936 -0.948,0.971 7.406,0.463 12.832,-12.031 8.722,-20.086 -1.86,-3.646 -20.711,-16.381 -24.195,-16.345 -0.589,0.006 1.448,1.384 4.527,3.062 m -50.039,69.987 c 0.64,4.772 -2.925,12.377 -5.801,12.377 -0.835,0 -0.816,-2.901 0.023,-3.42 0.36,-0.222 1.494,-3.182 2.518,-6.577 2.044,-6.768 2.615,-7.186 3.26,-2.38"
         inkscape:connector-curvature="0"
         style="fill:#666666;fill-rule:evenodd;stroke:none" />
      <path
         id="path1"
         d="M 0,194.175 V 388.35 H 200 400 V 194.175 0 H 200 0 V 194.175 M 222.682,38.24 c 5.348,2.359 7.595,6.313 10.749,18.907 3.835,15.315 2.385,21.669 -5.869,25.734 -11.404,5.615 -19.236,-1.092 -23.318,-19.968 -0.508,-2.35 -1.234,-5.075 -1.613,-6.056 C 198.27,45.569 211.484,33.3 222.682,38.24 m 83.736,12.451 c 9.538,2.935 13.971,13.788 9.119,22.324 -10.586,18.618 -14.454,22.519 -22.333,22.519 -11.29,0 -17.974,-12.444 -12.167,-22.652 8.477,-14.901 13.125,-20.585 18.147,-22.194 3.437,-1.101 3.646,-1.1 7.234,0.003 M 154.163,90.886 c 14.374,8.188 19.286,12.008 21.452,16.687 4.705,10.163 -5.268,22.59 -15.968,19.896 -4.479,-1.128 -20.162,-10.439 -23.755,-14.103 -11.971,-12.209 3.305,-31.005 18.271,-22.48 m 97.876,7.429 c 24.675,2.115 47.799,22.473 54.628,48.093 2.943,11.038 2.175,30.006 -1.5,37.077 -0.386,0.741 -0.701,1.856 -0.701,2.476 0,1.191 -3.815,8.552 -6.47,12.486 -3.119,4.62 -9.725,11.72 -14.093,15.145 -2.451,1.923 -5.121,4.02 -5.933,4.66 -1.361,1.074 -1.385,1.34 -0.308,3.387 4.674,8.88 7.905,27.08 6.53,36.788 -0.594,4.195 -0.478,6.217 0.599,10.397 1.947,7.556 -0.646,14.242 -6.746,17.396 -1.187,0.614 -4.072,3.835 -6.411,7.157 -9.465,13.441 -23.501,23.791 -38.624,28.481 -3.169,0.983 -4.832,2.06 -6.44,4.172 -18.464,24.242 -65.519,30.672 -87.711,11.985 -1.085,-0.914 -1.974,-0.963 -4.75,-0.264 -44.799,11.28 -87.507,-21.409 -87.507,-66.98 0,-1.811 -0.869,-5.511 -1.932,-8.222 -20.319,-51.847 22.63,-107.765 78.294,-101.936 6.021,0.63 6.106,0.614 10.485,-2.028 13.071,-7.886 26.335,-11.765 40.282,-11.781 l 7.13,-0.008 1.292,-4.466 c 5.084,-17.571 23.562,-36.166 41.148,-41.408 1.709,-0.51 3.91,-1.231 4.891,-1.604 0.981,-0.372 3.253,-0.697 5.048,-0.722 1.796,-0.025 4.663,-0.346 6.372,-0.715 1.708,-0.368 4.155,-0.511 5.437,-0.317 1.281,0.193 4.427,0.532 6.99,0.751 m 106.976,23.203 c 7.592,1.597 12.437,12.998 8.703,20.482 -2.373,4.757 -6.202,7.038 -15.873,9.456 -1.709,0.427 -4.559,1.2 -6.333,1.717 -12.959,3.778 -23.139,-1.799 -23.397,-12.817 -0.213,-9.075 4.648,-13.383 18.856,-16.71 14.229,-3.333 13.005,-3.188 18.044,-2.128 m -124.535,6.986 c -9.362,2.582 -18.16,9.922 -22.379,18.671 -3.397,7.043 -3.316,7.305 3.683,11.863 8.425,5.488 17.057,13.786 21.937,21.089 4.031,6.032 15.701,14.824 19.677,14.824 4.203,0 14.375,-9.271 17.982,-16.39 13.636,-26.908 -11.83,-58.073 -40.9,-50.057 m -70.597,47.807 c -0.64,0.414 -1.847,0.758 -2.682,0.764 -3.641,0.029 -15.57,6.884 -20.389,11.716 l -4.82,4.833 -6.054,-2.243 c -38.219,-14.158 -75.233,28.426 -56.486,64.987 2.014,3.926 2.149,4.779 1.978,12.477 -0.759,34.092 34.97,54.787 62.667,36.297 4.28,-2.857 3.936,-2.936 8.395,1.932 18.413,20.104 49.961,17.065 63.209,-6.089 2.665,-4.659 2.75,-4.711 8.912,-5.481 29.986,-3.747 46.72,-38.623 31.221,-65.069 -5.184,-8.846 -19.824,-19.95 -26.303,-19.95 -1.659,0 -2.347,-0.97 -6.346,-8.957 -8.419,-16.815 -23.705,-26.007 -43.204,-25.982 -4.913,0.007 -9.457,0.351 -10.098,0.765 m 170.874,24.28 c 8.287,4.654 17.039,10.751 18.62,12.972 7.263,10.199 -1.876,24.754 -14.318,22.805 -3.326,-0.521 -19.347,-9.727 -23.208,-13.335 -9.077,-8.483 -5.94,-20.714 6.479,-25.262 2.348,-0.86 8.266,0.483 12.427,2.82"
         inkscape:connector-curvature="0"
         style="fill:#242323;fill-rule:evenodd;stroke:none" />
      <path
         id="path2"
         d="m 202.174,52.039 c 0,2.349 0.146,3.311 0.324,2.136 0.178,-1.175 0.178,-3.097 0,-4.272 -0.178,-1.175 -0.324,-0.214 -0.324,2.136 m 17.06,32.402 c 1.181,0.178 2.928,0.174 3.883,-0.011 0.956,-0.184 -0.01,-0.33 -2.146,-0.324 -2.136,0.005 -2.918,0.156 -1.737,0.335 m 84.018,6.627 -2.281,2.524 2.524,-2.281 c 1.388,-1.255 2.524,-2.391 2.524,-2.524 0,-0.6 -0.64,-0.072 -2.767,2.281 m -171.506,8.768 c -0.266,0.694 -0.44,2.369 -0.387,3.723 0.081,2.047 0.195,1.873 0.678,-1.035 0.618,-3.715 0.505,-4.76 -0.291,-2.688 m 44.761,13.174 c 0.008,1.708 0.167,2.316 0.353,1.35 0.186,-0.966 0.179,-2.364 -0.016,-3.107 -0.194,-0.743 -0.346,0.048 -0.337,1.757 m 64.852,14.154 c 1.389,0.172 3.66,0.172 5.049,0 1.388,-0.172 0.252,-0.313 -2.525,-0.313 -2.776,0 -3.912,0.141 -2.524,0.313 m 26.991,10.312 c 1.668,1.708 3.208,3.107 3.422,3.107 0.213,0 -0.977,-1.399 -2.646,-3.107 -1.668,-1.709 -3.208,-3.107 -3.422,-3.107 -0.213,0 0.977,1.398 2.646,3.107 m -105.243,10.108 c -1.15,0.376 0.434,0.458 3.883,0.204 3.204,-0.237 5.971,-0.557 6.149,-0.711 0.641,-0.556 -8.135,-0.112 -10.032,0.507 m 13.398,-0.252 c 0.747,0.195 1.971,0.195 2.718,0 0.748,-0.196 0.136,-0.356 -1.359,-0.356 -1.495,0 -2.107,0.16 -1.359,0.356 m 147.378,0.484 c 0,0.134 1.136,1.269 2.525,2.524 l 2.524,2.281 -2.281,-2.524 c -2.127,-2.353 -2.768,-2.881 -2.768,-2.281 m -168.543,1.31 c -1.538,0.493 -1.619,0.622 -0.389,0.622 0.855,0 2.428,-0.28 3.496,-0.622 1.537,-0.492 1.618,-0.622 0.388,-0.622 -0.854,0 -2.427,0.28 -3.495,0.622 m -8.156,2.33 c -2.965,1.964 -2.252,1.97 2.052,0.017 2.072,-0.94 2.783,-1.541 1.832,-1.548 -0.854,-0.006 -2.602,0.683 -3.884,1.531 m -10.906,5.56 c -5.684,3.273 -7.597,3.994 -10.453,3.943 l -3.495,-0.062 3.309,0.764 c 2.826,0.652 3.625,0.539 5.474,-0.778 1.19,-0.848 4.769,-2.961 7.953,-4.696 3.184,-1.736 5.424,-3.16 4.979,-3.166 -0.445,-0.006 -3.94,1.791 -7.767,3.995 m 72.654,-2.338 c 0,0.654 0.961,1.622 2.136,2.15 1.784,0.802 1.944,0.791 0.971,-0.07 -0.641,-0.566 -1.602,-1.534 -2.136,-2.149 -0.841,-0.97 -0.971,-0.961 -0.971,0.069 m 6.195,4.292 c 11.402,8.411 16.73,13.711 23.182,23.059 3.145,4.557 13.341,12.419 13.341,10.287 0,-0.217 -2.185,-1.618 -4.857,-3.112 -3.954,-2.211 -5.501,-3.699 -8.315,-7.999 -5.474,-8.363 -15.273,-17.891 -22.944,-22.311 -2.301,-1.326 -2.306,-1.325 -0.407,0.076 m 93.445,3.748 c 0.005,2.136 0.156,2.918 0.335,1.737 0.178,-1.18 0.174,-2.928 -0.011,-3.883 -0.184,-0.955 -0.33,0.011 -0.324,2.146 m -196.145,-2.156 c 1.389,0.172 3.66,0.172 5.049,0 1.388,-0.172 0.252,-0.313 -2.525,-0.313 -2.776,0 -3.912,0.141 -2.524,0.313 m -12.233,0.991 -1.942,0.622 1.942,-0.014 c 1.068,-0.008 2.99,-0.282 4.272,-0.608 l 2.33,-0.593 -2.33,-0.014 c -1.282,-0.008 -3.204,0.265 -4.272,0.607 m -6.99,1.554 c -1.484,0.959 0.113,0.959 3.107,0 l 1.941,-0.622 -1.941,-0.066 c -1.068,-0.036 -2.466,0.274 -3.107,0.688 m -8.314,3.389 c -12.711,5.724 -25.724,16.717 -33.218,28.063 -3.113,4.713 -8.615,16.524 -7.99,17.149 0.188,0.187 1.304,-2.114 2.481,-5.115 6.421,-16.365 20.447,-30.583 38.708,-39.237 8.297,-3.932 8.311,-4.594 0.019,-0.86 m 85.43,8.836 c 2.472,0.155 6.316,0.153 8.543,-0.003 2.227,-0.156 0.205,-0.283 -4.494,-0.281 -4.699,0.002 -6.521,0.129 -4.049,0.284 m -9.155,0.979 -1.553,0.667 1.553,0.043 c 0.854,0.023 2.078,-0.296 2.718,-0.71 1.544,-0.998 -0.396,-0.998 -2.718,0 m 24.078,0 c 0.854,0.367 2.077,0.667 2.718,0.667 0.735,0 0.591,-0.247 -0.388,-0.667 -0.855,-0.367 -2.078,-0.668 -2.719,-0.668 -0.734,0 -0.59,0.247 0.389,0.668 m -34.031,4.024 c -3.526,1.858 -7.963,5.063 -10.588,7.647 -2.485,2.447 -4.997,4.639 -5.581,4.871 -0.837,0.333 -0.815,0.434 0.103,0.477 0.64,0.03 3.262,-2.067 5.825,-4.66 3.399,-3.439 6.552,-5.644 11.65,-8.146 3.845,-1.887 6.466,-3.422 5.826,-3.41 -0.641,0.012 -3.897,1.461 -7.235,3.221 m 39.079,-2.471 c 0.641,0.414 1.69,0.753 2.33,0.753 1.036,0 1.036,-0.084 0,-0.753 -0.64,-0.414 -1.689,-0.753 -2.33,-0.753 -1.035,0 -1.035,0.084 0,0.753 m 3.884,1.139 c 0,0.214 1.747,1.274 3.883,2.356 2.136,1.083 3.884,1.793 3.884,1.58 0,-0.214 -1.748,-1.274 -3.884,-2.356 -2.136,-1.083 -3.883,-1.794 -3.883,-1.58 m 13.833,9.783 c 4.274,4.328 6.541,7.475 9.171,12.728 4.029,8.048 4.686,8.969 6.411,8.978 0.696,0.003 4.06,1.373 7.476,3.044 3.417,1.67 6.336,2.914 6.487,2.763 0.367,-0.367 -7.899,-4.465 -12.448,-6.172 -3.405,-1.278 -3.824,-1.758 -6.691,-7.687 -3.391,-7.013 -8.003,-13.061 -12.874,-16.885 -1.998,-1.569 -1.067,-0.349 2.468,3.231 m 60.688,-1.019 -2.677,2.913 2.913,-2.677 c 1.602,-1.472 2.913,-2.783 2.913,-2.913 0,-0.593 -0.658,-0.034 -3.149,2.677 m -162.14,0.854 c -0.986,0.278 2.792,0.505 8.395,0.505 5.604,0 9.382,-0.227 8.396,-0.505 -0.987,-0.278 -4.764,-0.505 -8.396,-0.505 -3.631,0 -7.409,0.227 -8.395,0.505 m 21.211,2.026 c 3.904,1.685 6.423,2.071 3.107,0.477 -1.709,-0.822 -3.631,-1.492 -4.272,-1.488 -0.641,0.003 -0.117,0.458 1.165,1.011 m -32.427,1.642 c -1.175,0.637 -2.136,1.304 -2.136,1.483 0,0.329 5.558,-1.837 6.149,-2.397 0.831,-0.788 -2.111,-0.118 -4.013,0.914 m 158.178,1.705 c 0.873,1.022 2.307,1.707 3.496,1.667 l 2.015,-0.066 -2.185,-0.656 c -1.203,-0.361 -2.775,-1.112 -3.496,-1.668 -0.964,-0.745 -0.919,-0.554 0.17,0.723 M 86.192,198.22 c -6.368,5.063 -15.907,16.926 -13.611,16.926 0.214,0 0.974,-1.136 1.688,-2.525 2.676,-5.196 10.817,-13.508 17.071,-17.43 0.812,-0.509 1.126,-0.942 0.699,-0.963 -0.427,-0.022 -3.058,1.775 -5.847,3.992 m 228.711,3.916 -2.282,2.524 2.525,-2.281 c 1.388,-1.255 2.524,-2.391 2.524,-2.524 0,-0.6 -0.641,-0.072 -2.767,2.281 m -25.971,6.408 c -1.887,1.922 -3.255,3.495 -3.042,3.495 0.214,0 1.932,-1.573 3.819,-3.495 1.886,-1.923 3.255,-3.495 3.042,-3.495 -0.214,0 -1.932,1.572 -3.819,3.495 m 21.97,3.883 c 0.006,2.136 0.156,2.918 0.335,1.737 0.178,-1.181 0.174,-2.928 -0.011,-3.883 -0.184,-0.956 -0.33,0.01 -0.324,2.146 m -268.516,2.386 c -0.286,1.138 -0.345,2.244 -0.132,2.458 0.214,0.213 0.623,-0.543 0.908,-1.682 0.286,-1.138 0.345,-2.244 0.131,-2.457 -0.213,-0.214 -0.622,0.542 -0.907,1.681 m 28.429,2.749 c -0.966,2.618 -1.89,6.588 -1.426,6.123 0.675,-0.674 2.791,-7.298 2.443,-7.646 -0.183,-0.183 -0.64,0.503 -1.017,1.523 m 171.537,3.433 c 2.361,2.55 5.092,5.685 6.068,6.966 0.976,1.282 1.656,1.865 1.511,1.297 -0.379,-1.485 -5.892,-7.887 -9.121,-10.593 -1.738,-1.456 -1.169,-0.598 1.542,2.33 m 34.327,-2.548 c -0.559,0.684 -0.194,2.426 1.238,5.902 1.118,2.712 2.146,4.588 2.286,4.169 0.14,-0.42 -0.607,-2.637 -1.66,-4.927 -1.37,-2.982 -1.684,-4.441 -1.104,-5.14 0.445,-0.536 0.635,-0.975 0.421,-0.975 -0.213,0 -0.745,0.437 -1.181,0.971 m -235.867,3.336 c -0.297,1.981 -0.381,3.761 -0.187,3.955 0.194,0.194 0.596,-1.268 0.893,-3.249 0.297,-1.981 0.381,-3.761 0.187,-3.955 -0.194,-0.194 -0.596,1.268 -0.893,3.249 m 27.131,8.437 c -0.615,6.565 0.091,14.248 1.681,18.284 0.598,1.517 0.888,1.884 0.644,0.816 -1.319,-5.778 -1.927,-13.51 -1.483,-18.835 0.277,-3.31 0.322,-6.019 0.1,-6.019 -0.222,0 -0.646,2.589 -0.942,5.754 m -28.203,4.551 c -0.133,8.664 1.806,20.41 4.234,25.641 1.297,2.796 1.194,2.258 -1.376,-7.208 -0.967,-3.56 -1.805,-9.903 -2.156,-16.311 l -0.574,-10.485 -0.128,8.363 m 311.76,-3.364 -3.064,3.544 3.414,-3.274 c 1.877,-1.801 3.256,-3.396 3.063,-3.544 -0.192,-0.149 -1.729,1.325 -3.413,3.274 m -69.096,6.651 c 0.645,3.853 1.095,4.473 1.079,1.489 -0.006,-1.246 -0.369,-2.79 -0.805,-3.43 -0.569,-0.835 -0.646,-0.285 -0.274,1.941 M 253.27,237.67 c 0.024,0.641 0.343,1.864 0.711,2.718 l 0.667,1.554 0.043,-1.554 c 0.023,-0.854 -0.296,-2.077 -0.71,-2.718 -0.67,-1.036 -0.749,-1.036 -0.711,0 m 1.973,7.767 c 0.631,4.35 1.071,4.971 1.056,1.489 -0.007,-1.46 -0.361,-3.178 -0.788,-3.819 -0.542,-0.814 -0.623,-0.113 -0.268,2.33 m 28.444,7.379 c 0.002,7.329 0.091,7.936 0.625,4.271 0.343,-2.349 0.342,-6.194 -0.002,-8.543 -0.537,-3.666 -0.625,-3.06 -0.623,4.272 M 70.753,252.039 c 0,0.427 1.015,2.699 2.257,5.048 1.241,2.35 2.257,3.923 2.257,3.496 0,-0.428 -1.016,-2.7 -2.257,-5.049 -1.242,-2.35 -2.257,-3.922 -2.257,-3.495 m 184.895,4.66 c -0.075,1.282 -0.315,3.204 -0.535,4.272 l -0.4,1.942 0.836,-1.915 c 0.459,-1.053 0.7,-2.975 0.534,-4.272 l -0.3,-2.357 -0.135,2.33 m -2.056,8.932 c -0.291,0.919 -0.355,1.845 -0.142,2.059 0.214,0.213 0.627,-0.363 0.919,-1.282 0.292,-0.919 0.355,-1.845 0.142,-2.059 -0.214,-0.214 -0.627,0.363 -0.919,1.282 m -178.774,5.825 c 0.003,2.991 0.144,4.119 0.312,2.507 0.168,-1.611 0.165,-4.058 -0.006,-5.437 -0.172,-1.378 -0.309,-0.06 -0.306,2.93 M 46.67,271.133 c 0.037,2.314 0.36,5.954 0.716,8.09 0.459,2.748 0.525,1.611 0.228,-3.883 -0.454,-8.383 -1.055,-11.06 -0.944,-4.207 m 203.575,2.591 c -2.393,4.62 -7.776,10.532 -13.74,15.091 l -2.33,1.781 2.566,-1.413 c 5.635,-3.101 17.197,-17.112 16.301,-19.754 -0.124,-0.368 -1.383,1.565 -2.797,4.295 m 34.999,0.062 c 0.009,1.709 0.168,2.317 0.354,1.351 0.186,-0.967 0.179,-2.365 -0.016,-3.107 -0.194,-0.743 -0.346,0.048 -0.338,1.756 m -209.795,5.826 c 0,0.64 0.3,1.864 0.668,2.718 0.42,0.979 0.667,1.123 0.667,0.388 0,-0.64 -0.3,-1.864 -0.667,-2.718 -0.421,-0.979 -0.668,-1.123 -0.668,-0.388 m 205.279,4.077 -2.281,2.525 2.524,-2.282 c 1.388,-1.254 2.524,-2.39 2.524,-2.524 0,-0.6 -0.641,-0.072 -2.767,2.281 m -203.835,1.268 c 0,3.921 8.478,15.614 14.298,19.719 1.321,0.931 -0.143,-0.825 -3.253,-3.904 -4.111,-4.069 -6.391,-7.133 -8.35,-11.221 -1.482,-3.093 -2.695,-5.16 -2.695,-4.594 m -28.671,0.868 c 0.023,0.641 0.343,1.864 0.71,2.719 l 0.668,1.553 0.042,-1.553 c 0.024,-0.855 -0.296,-2.078 -0.71,-2.719 -0.669,-1.035 -0.748,-1.035 -0.71,0 m 227.116,1.371 c -0.429,0.314 -2.139,2.668 -3.8,5.231 -3.993,6.159 -14.406,16.402 -20.482,20.148 -2.676,1.65 -4.708,3.158 -4.515,3.351 0.74,0.74 11.946,-7.756 16.868,-12.789 4.084,-4.176 13.765,-16.577 12.9,-16.523 -0.106,0.006 -0.543,0.269 -0.971,0.582 m -44.658,4.843 c -1.496,0.818 -2.439,1.503 -2.098,1.521 0.823,0.043 5.204,-2.235 5.204,-2.706 0,-0.509 -0.045,-0.491 -3.106,1.185 m -6.214,2.33 c -1.036,0.669 -1.036,0.753 0,0.753 0.641,0 1.689,-0.339 2.33,-0.753 1.036,-0.669 1.036,-0.753 0,-0.753 -0.641,0 -1.689,0.339 -2.33,0.753 m -8.544,1.553 -2.718,0.573 2.718,0.024 c 1.495,0.014 3.593,-0.255 4.661,-0.597 l 1.941,-0.622 -1.941,0.025 c -1.068,0.014 -3.166,0.283 -4.661,0.597 m -7.309,6.857 c -10.938,21.152 -44.553,23.476 -62.121,4.295 -2.096,-2.289 -4.077,-4.161 -4.402,-4.161 -0.967,0 -6.966,4.121 -6.572,4.514 0.199,0.2 1.572,-0.56 3.05,-1.688 3.528,-2.69 3.753,-2.644 7.109,1.451 14.432,17.613 41.385,18.831 57.855,2.615 3.935,-3.875 7.765,-9.222 6.605,-9.222 -0.214,0 -0.9,0.988 -1.524,2.196 m -154.227,0.716 c 0.01,0.321 0.73,1.456 1.6,2.524 l 1.583,1.942 -1.232,-2.524 c -1.17,-2.399 -1.988,-3.213 -1.951,-1.942 m 43.478,4.87 c 2.071,1.366 10.966,3.87 13.48,3.795 1.602,-0.048 0.695,-0.421 -2.635,-1.086 -2.793,-0.556 -6.418,-1.572 -8.056,-2.257 -3.365,-1.405 -4.518,-1.593 -2.789,-0.452 m 31.853,0.603 c -1.919,0.659 -3.075,1.337 -2.571,1.505 0.505,0.168 2.424,-0.386 4.264,-1.232 3.968,-1.822 3.181,-1.949 -1.693,-0.273 m -71.79,0.158 c 0.575,1.183 5.157,7.101 7.304,9.434 2.308,2.508 13.566,11.537 14.354,11.512 0.442,-0.013 0.104,-0.537 -0.75,-1.163 -8.518,-6.245 -13.96,-11.459 -20.244,-19.394 -0.677,-0.855 -0.976,-1.03 -0.664,-0.389 m 62.461,2.33 -2.718,0.573 2.718,0.047 c 1.495,0.026 3.418,-0.253 4.272,-0.62 l 1.554,-0.667 -1.554,0.047 c -0.854,0.027 -2.777,0.306 -4.272,0.62 m 105.328,14.419 c -1.63,1.949 -2.801,3.706 -2.603,3.904 0.198,0.198 1.277,-0.842 2.398,-2.312 1.121,-1.47 2.593,-3.227 3.271,-3.905 0.677,-0.677 0.931,-1.232 0.564,-1.232 -0.367,0 -2.001,1.595 -3.63,3.545 m -144.939,4.597 c 0,0.207 1.747,1.261 3.883,2.344 4.884,2.474 5.09,1.971 0.291,-0.711 -3.734,-2.086 -4.174,-2.259 -4.174,-1.633 m 136.334,3.545 c -2.55,2.109 -7.006,5.079 -9.903,6.601 -2.896,1.522 -5.266,2.941 -5.266,3.153 0,1.1 12.626,-6.475 16.31,-9.786 5.49,-4.932 4.841,-4.914 -1.141,0.032 m -127.014,1.517 c 0.641,0.414 1.689,0.753 2.33,0.753 1.036,0 1.036,-0.084 0,-0.753 -0.641,-0.414 -1.689,-0.753 -2.33,-0.753 -1.036,0 -1.036,0.084 0,0.753 m 43.884,1.59 c -1.137,0.514 -0.81,0.588 1.214,0.274 1.976,-0.306 3.06,-0.079 3.785,0.795 0.559,0.673 1.41,1.217 1.892,1.207 0.481,-0.009 0.002,-0.701 -1.066,-1.536 -2.115,-1.654 -3.438,-1.822 -5.825,-0.74 m -31.845,1.561 c 1.709,0.354 3.981,0.623 5.048,0.598 1.246,-0.028 0.828,-0.275 -1.165,-0.687 -1.708,-0.353 -3.98,-0.622 -5.048,-0.598 -1.246,0.029 -0.828,0.275 1.165,0.687 m 22.913,-0.044 c -2.063,0.434 -2.25,0.586 -0.777,0.629 1.068,0.032 3.34,-0.231 5.048,-0.585 2.59,-0.535 2.719,-0.64 0.777,-0.629 -1.281,0.007 -3.553,0.27 -5.048,0.585 m -11.457,1.333 c 1.175,0.178 3.097,0.178 4.272,0 1.175,-0.178 0.214,-0.324 -2.136,-0.324 -2.349,0 -3.311,0.146 -2.136,0.324 m 28.544,-0.181 c 0,0.206 1.747,1.261 3.883,2.343 4.884,2.475 5.09,1.972 0.291,-0.71 -3.734,-2.087 -4.174,-2.259 -4.174,-1.633 m 12.745,5.922 c 2.524,0.815 4.734,1.337 4.912,1.159 0.35,-0.35 -7.768,-2.846 -8.845,-2.719 -0.361,0.043 1.408,0.745 3.933,1.56 m 40.587,-0.328 c -2.065,0.632 -3.606,1.297 -3.424,1.479 0.182,0.182 2.396,-0.336 4.92,-1.151 2.524,-0.815 4.065,-1.481 3.424,-1.479 -0.64,0.002 -2.854,0.52 -4.92,1.151 m -29.254,2.963 c 3.203,0.587 7.572,1.067 9.708,1.067 2.136,0 6.505,-0.48 9.709,-1.067 l 5.825,-1.068 -5.048,0.534 c -2.777,0.293 -7.495,0.534 -10.486,0.534 -2.99,0 -7.708,-0.241 -10.485,-0.534 l -5.049,-0.534 5.826,1.068"
         inkscape:connector-curvature="0"
         style="fill:#414040;fill-rule:evenodd;stroke:none" />
      <path
         id="path3"
         d="m 222.981,39.029 c 0.18,0.107 1.549,1.243 3.042,2.524 l 2.715,2.33 -2.281,-2.524 c -1.255,-1.388 -2.624,-2.524 -3.042,-2.524 -0.419,0 -0.614,0.087 -0.434,0.194 m 87.699,14.03 c 0,0.133 1.136,1.269 2.524,2.524 l 2.524,2.281 -2.281,-2.524 c -2.127,-2.353 -2.767,-2.881 -2.767,-2.281 m -80.438,27.135 -2.281,2.524 2.524,-2.281 c 2.353,-2.126 2.882,-2.767 2.282,-2.767 -0.134,0 -1.27,1.136 -2.525,2.524 m 50.923,8.593 c 0,0.133 1.136,1.269 2.524,2.524 l 2.525,2.281 -2.282,-2.524 c -2.126,-2.353 -2.767,-2.881 -2.767,-2.281 m 10.689,6.52 c 0.966,0.185 2.364,0.178 3.107,-0.016 0.742,-0.194 -0.048,-0.346 -1.757,-0.338 -1.709,0.009 -2.316,0.168 -1.35,0.354 m -58.65,3.869 c 0.747,0.196 1.971,0.196 2.718,0 0.748,-0.195 0.136,-0.355 -1.359,-0.355 -1.495,0 -2.107,0.16 -1.359,0.355 m 18.261,0.014 c 0.967,0.186 2.365,0.179 3.107,-0.016 0.743,-0.194 -0.048,-0.346 -1.756,-0.337 -1.709,0.008 -2.317,0.167 -1.351,0.353 m -53.844,18.286 -2.281,2.524 2.524,-2.281 c 2.353,-2.127 2.881,-2.768 2.281,-2.768 -0.133,0 -1.269,1.136 -2.524,2.525 m -25.631,5.437 -2.281,2.524 2.524,-2.281 c 2.353,-2.127 2.881,-2.768 2.281,-2.768 -0.133,0 -1.269,1.136 -2.524,2.525 m -4.611,24.854 c -3.418,0.354 -7.262,0.976 -8.544,1.383 l -2.33,0.74 2.33,-0.397 c 1.282,-0.219 6.786,-0.615 12.233,-0.882 5.447,-0.267 9.901,-0.697 9.898,-0.956 -0.007,-0.682 -6.418,-0.629 -13.587,0.112 m -22.136,5.478 c -4.059,1.834 -9.413,4.64 -11.899,6.235 -3.729,2.393 -5.021,2.831 -7.379,2.506 l -2.858,-0.393 2.764,0.799 c 2.547,0.736 3.187,0.541 8.155,-2.48 6.368,-3.872 15.779,-8.265 19.694,-9.193 2.185,-0.518 2.367,-0.676 0.843,-0.734 -1.068,-0.041 -5.262,1.426 -9.32,3.26 m 62.912,2.361 c 0,0.199 1.919,1.445 4.264,2.769 9.879,5.575 18.395,14.044 27.995,27.843 1.109,1.594 7.353,5.41 7.353,4.493 0,-0.213 -1.365,-1.084 -3.032,-1.935 -2.061,-1.051 -4.16,-3.243 -6.549,-6.836 -4.931,-7.418 -8.993,-11.836 -16.143,-17.556 -5.555,-4.445 -13.888,-9.712 -13.888,-8.778 m -97.641,5.746 c 2.472,0.154 6.316,0.153 8.543,-0.004 2.228,-0.156 0.205,-0.283 -4.494,-0.281 -4.699,0.002 -6.521,0.13 -4.049,0.285 m -10.32,0.978 -2.718,0.572 2.718,0.048 c 1.495,0.026 3.418,-0.253 4.272,-0.62 l 1.553,-0.667 -1.553,0.047 c -0.854,0.026 -2.777,0.305 -4.272,0.62 m -8.019,1.904 c -1.634,0.583 -3.206,1.322 -3.495,1.643 -0.289,0.321 0.174,0.313 1.029,-0.018 0.854,-0.33 2.717,-0.88 4.139,-1.22 1.422,-0.341 2.791,-0.825 3.042,-1.076 0.777,-0.777 -1.603,-0.439 -4.715,0.671 m -8.292,3.533 c -1.495,0.819 -2.368,1.488 -1.941,1.488 0.427,0 2,-0.669 3.495,-1.488 1.495,-0.819 2.369,-1.488 1.942,-1.488 -0.428,0 -2,0.669 -3.496,1.488 m -5.631,2.774 c -2.903,1.576 -2.726,2.232 0.195,0.721 1.281,-0.663 2.33,-1.371 2.33,-1.573 0,-0.5 -0.084,-0.472 -2.525,0.852 m 92.839,4.011 c 2.042,0.161 5.188,0.159 6.991,-0.004 1.802,-0.163 0.132,-0.294 -3.713,-0.292 -3.845,0.003 -5.32,0.136 -3.278,0.296 m -11.644,1.389 c -6.242,1.966 -14.595,6.953 -19.253,11.493 -4.637,4.521 -4.673,4.539 -7.378,3.591 -4.581,-1.606 -5.192,-1.616 -1.942,-0.033 4.416,2.152 4.548,2.112 9.639,-2.901 5.241,-5.16 13.562,-9.857 21.036,-11.876 2.779,-0.75 4.179,-1.351 3.111,-1.334 -1.068,0.016 -3.414,0.494 -5.213,1.06 m 27.742,0.274 c 12.75,3.443 24.102,12.46 30.162,23.958 1.751,3.322 3.194,5.65 3.207,5.172 0.268,-9.622 -25.325,-30.817 -36.869,-30.533 -0.854,0.021 0.721,0.653 3.5,1.403 m -122.738,4.489 c -6.187,5.837 -12.044,13.312 -15.508,19.793 -3.603,6.741 -2.773,6.437 1.132,-0.415 4.671,-8.198 8.967,-13.628 15.486,-19.578 2.995,-2.734 5.204,-4.97 4.908,-4.97 -0.295,0 -3.003,2.327 -6.018,5.17 m 47.199,7.049 c 1.816,0.164 4.787,0.164 6.602,0 1.816,-0.163 0.331,-0.297 -3.301,-0.297 -3.631,0 -5.116,0.134 -3.301,0.297 m -8.349,0.985 c -1.484,0.959 0.113,0.959 3.107,0 l 1.942,-0.622 -1.942,-0.066 c -1.068,-0.036 -2.466,0.274 -3.107,0.688 m 20.194,0 c 2.656,0.85 4.698,0.85 2.719,0 -0.855,-0.367 -2.253,-0.657 -3.107,-0.645 -1.249,0.019 -1.173,0.145 0.388,0.645 m -29.903,3.883 c -3.036,2.011 -1.957,2.014 1.341,0.003 1.398,-0.853 2.193,-1.549 1.766,-1.548 -0.427,0.001 -1.825,0.697 -3.107,1.545 m 154.952,-1.288 c 0,0.168 1.485,1.285 3.301,2.482 1.867,1.232 2.819,1.592 2.192,0.829 -1.053,-1.28 -5.493,-3.957 -5.493,-3.311 m -162.819,6.381 c -7.176,5.569 -15.827,16.933 -15.82,20.78 0,0.508 1.096,-1.174 2.433,-3.737 3.042,-5.829 7.812,-11.781 12.198,-15.22 6.064,-4.755 6.732,-5.327 6.237,-5.345 -0.269,-0.009 -2.541,1.575 -5.048,3.522 m 134.858,9.601 c 0,0.786 3.021,2.748 3.485,2.262 0.135,-0.141 -0.594,-0.885 -1.62,-1.652 -1.026,-0.768 -1.865,-1.042 -1.865,-0.61 m 11.262,5.829 c 5.072,2.489 8.355,4.78 11.964,8.347 3.541,3.5 4.267,4.011 2.52,1.772 -4.002,-5.128 -16.7,-13.561 -20.406,-13.552 -0.588,0.002 2.077,1.547 5.922,3.433 m -189.372,3.852 c -0.292,0.761 -0.509,1.967 -0.482,2.679 0.033,0.858 0.302,0.663 0.799,-0.579 0.412,-1.032 0.629,-2.237 0.482,-2.679 -0.148,-0.443 -0.507,-0.182 -0.799,0.579 m 26.32,4.807 c -0.285,1.138 -0.369,2.219 -0.186,2.402 0.183,0.184 0.566,-0.598 0.852,-1.736 0.286,-1.138 0.37,-2.22 0.187,-2.403 -0.183,-0.183 -0.567,0.599 -0.853,1.737 m -27.876,3.059 c -0.281,1.704 -0.47,4.672 -0.419,6.594 0.072,2.725 0.241,2.212 0.767,-2.33 0.73,-6.305 0.485,-9.311 -0.348,-4.264 m 26.378,3.293 c -0.606,3.666 -0.507,13.206 0.161,15.58 0.278,0.987 0.505,-2.771 0.505,-8.349 0,-11.321 0.004,-11.284 -0.666,-7.231 m 210.829,-2.524 c -0.024,0.427 0.519,2.35 1.206,4.272 0.688,1.922 1.715,5.243 2.283,7.379 l 1.033,3.883 -0.445,-3.495 c -0.412,-3.24 -3.981,-13.778 -4.077,-12.039 m -28.027,3.709 c 0,0.628 4.615,9.384 4.636,8.796 0.029,-0.832 -3.909,-9.01 -4.339,-9.01 -0.163,0 -0.297,0.096 -0.297,0.214 M 40.48,239.676 c 0.051,2.528 0.357,5.644 0.68,6.926 0.324,1.283 0.408,-0.638 0.188,-4.272 -0.465,-7.689 -1.001,-9.327 -0.868,-2.654 m 214.289,0.777 c 0.007,0.819 0.367,2.013 0.8,2.654 0.576,0.851 0.648,0.536 0.268,-1.165 -0.639,-2.856 -1.084,-3.476 -1.068,-1.489 m 28.264,13.139 c 10e-4,6.835 0.12,9.527 0.264,5.983 0.144,-3.545 0.143,-9.137 -0.002,-12.427 -0.145,-3.291 -0.263,-0.391 -0.262,6.444 m -26.831,-0.776 c -0.274,4.699 -0.715,9.592 -0.981,10.873 -0.266,1.282 0.058,0.662 0.72,-1.377 0.824,-2.537 1.134,-5.971 0.981,-10.874 l -0.223,-7.166 -0.497,8.544 M 42.051,250.874 c 0,0.641 0.3,1.864 0.667,2.718 0.421,0.979 0.668,1.123 0.668,0.389 0,-0.641 -0.3,-1.864 -0.668,-2.719 -0.42,-0.979 -0.667,-1.123 -0.667,-0.388 m 27.852,0.895 c 0,0.681 0.948,2.936 2.107,5.01 1.159,2.073 2.339,5.175 2.621,6.893 0.47,2.852 0.523,2.91 0.612,0.663 0.054,-1.389 -1.088,-4.932 -2.622,-8.133 -1.495,-3.12 -2.718,-5.115 -2.718,-4.433 m -24.811,9.835 c -0.024,0.563 0.369,1.786 0.874,2.719 0.504,0.933 1.154,3.968 1.443,6.745 l 0.526,5.049 0.067,-4.272 c 0.056,-3.609 -2.769,-13.553 -2.91,-10.241 m 28.935,9.852 c 0.004,2.563 0.149,3.518 0.322,2.122 0.173,-1.396 0.17,-3.493 -0.008,-4.66 -0.177,-1.167 -0.318,-0.025 -0.314,2.538 m 176.243,3.69 c -4.022,7.112 -12.374,14.339 -21.375,18.495 -1.795,0.829 -2.39,1.298 -1.322,1.043 6.978,-1.67 20.087,-12.625 23.746,-19.845 2.545,-5.022 1.849,-4.818 -1.049,0.307 m -175.605,3.301 c -0.404,11.935 18.415,33.165 29.242,32.987 0.734,-0.012 -0.936,-0.938 -3.713,-2.059 -13.887,-5.604 -21.76,-15.539 -25.127,-31.705 -0.206,-0.989 -0.352,-0.707 -0.402,0.777 m -26.498,3.171 c 0.007,1.673 0.319,3.526 0.693,4.118 0.417,0.657 0.523,-0.399 0.273,-2.719 -0.508,-4.731 -0.981,-5.416 -0.966,-1.399 m 226.646,5.178 c -0.666,0.534 -2.699,3.2 -4.517,5.925 -7.377,11.058 -21.69,22.384 -32.931,26.058 -0.809,0.265 -1.268,0.683 -1.021,0.931 0.679,0.679 8.328,-3.026 14.696,-7.12 6.641,-4.269 17.87,-15.475 21.193,-21.149 1.282,-2.188 3.029,-4.323 3.884,-4.744 0.854,-0.422 1.183,-0.79 0.73,-0.819 -0.452,-0.029 -1.367,0.384 -2.034,0.918 m -225.038,1.748 c -0.023,0.854 0.296,2.077 0.71,2.718 0.998,1.544 0.998,-0.396 0,-2.718 l -0.667,-1.554 -0.043,1.554 m 1.9,6.213 c 1.821,9.731 13.561,24.629 26.503,33.635 4.395,3.058 3.646,1.793 -1.014,-1.712 -12.969,-9.757 -19.7,-18.257 -24.77,-31.283 -0.959,-2.465 -1.081,-2.574 -0.719,-0.64 m 168.908,1.165 c -1.538,0.493 -1.619,0.622 -0.389,0.622 0.855,0 2.427,-0.28 3.495,-0.622 1.538,-0.492 1.619,-0.622 0.389,-0.622 -0.855,0 -2.428,0.28 -3.495,0.622 m -10.239,5.18 c -3.262,5.779 -9.415,11.848 -15.522,15.31 -2.706,1.533 -4.612,2.793 -4.237,2.799 3.905,0.069 16.157,-10.398 19.83,-16.94 2.371,-4.225 2.938,-4.747 5.436,-5.014 l 2.79,-0.297 -2.906,-0.13 c -2.767,-0.125 -3.026,0.081 -5.391,4.272 m -70.511,3.72 c -0.517,0.623 -2.654,1.907 -4.749,2.854 -2.095,0.947 -3.683,1.848 -3.528,2.003 0.418,0.418 4.341,-1.402 7.726,-3.583 l 2.971,-1.914 3.077,3.6 c 3.001,3.511 13.897,11.446 15.706,11.437 0.498,-0.002 -1.541,-1.466 -4.531,-3.252 -2.99,-1.787 -7.385,-5.28 -9.767,-7.763 -4.589,-4.786 -5.408,-5.187 -6.905,-3.382 m -14.396,6.381 c -2.762,0.847 -6.17,1.107 -11.8,0.898 -4.353,-0.161 -7.499,-0.027 -6.99,0.296 2.748,1.748 23.838,-0.195 23.838,-2.195 0,-0.458 -0.834,-0.292 -5.048,1.001 m 105.461,9.827 c -1.374,0.501 -4.695,3.212 -7.378,6.022 -2.684,2.811 -6.452,6.428 -8.374,8.038 -4.278,3.583 -1.745,1.994 3.602,-2.259 2.137,-1.7 5.182,-4.7 6.767,-6.667 2.078,-2.579 3.903,-3.916 6.547,-4.796 2.016,-0.67 3.142,-1.226 2.501,-1.235 -0.641,-0.008 -2.29,0.395 -3.665,0.897 m -62.206,0.64 c 0.986,0.278 4.24,0.505 7.23,0.505 2.991,0 6.244,-0.227 7.231,-0.505 0.986,-0.278 -2.268,-0.505 -7.231,-0.505 -4.963,0 -8.216,0.227 -7.23,0.505 m -86.362,8.757 c 0,0.587 7.255,4.372 7.94,4.143 0.375,-0.125 -1.258,-1.179 -3.629,-2.342 -2.371,-1.163 -4.311,-1.973 -4.311,-1.801 m 9.32,4.629 c 0,0.569 7.677,2.808 9.467,2.761 0.988,-0.025 -0.651,-0.715 -3.641,-1.533 -6.23,-1.703 -5.826,-1.617 -5.826,-1.228 m 40.777,1.665 c -1.709,0.563 -2.408,1.024 -1.553,1.024 0.854,10e-4 2.776,-0.47 4.272,-1.046 3.485,-1.342 1.369,-1.325 -2.719,0.022 m -25.631,1.923 c 3.14,0.691 8.688,1.021 8.091,0.481 -0.178,-0.161 -2.77,-0.489 -5.761,-0.729 -4.178,-0.335 -4.718,-0.277 -2.33,0.248 m 12.816,-0.003 c -3.203,0.498 -3.268,0.549 -0.777,0.615 1.495,0.04 4.116,-0.217 5.825,-0.571 4.011,-0.829 0.217,-0.863 -5.048,-0.044 m 87.572,1.216 c -2.029,1.056 -3.689,2.094 -3.689,2.307 0,0.212 1.748,-0.499 3.884,-1.581 2.136,-1.083 3.883,-2.137 3.883,-2.344 0,-0.513 0.07,-0.541 -4.078,1.618 m -63.495,-0.109 c 0,0.586 7.255,4.371 7.94,4.143 0.376,-0.126 -1.257,-1.179 -3.629,-2.342 -2.371,-1.163 -4.311,-1.974 -4.311,-1.801 m 10.486,5.106 c 0.854,0.368 2.077,0.668 2.718,0.668 0.735,0 0.591,-0.247 -0.388,-0.668 -0.855,-0.367 -2.078,-0.667 -2.719,-0.667 -0.734,0 -0.59,0.247 0.389,0.667 m 41.165,0 c -0.979,0.421 -1.123,0.668 -0.389,0.668 0.641,0 1.865,-0.3 2.719,-0.668 0.979,-0.42 1.123,-0.667 0.388,-0.667 -0.641,0 -1.864,0.3 -2.718,0.667 m -36.117,1.554 c 0.641,0.414 1.864,0.733 2.719,0.71 l 1.553,-0.043 -1.553,-0.667 c -2.322,-0.998 -4.263,-0.998 -2.719,0 m 31.068,0 c -1.035,0.669 -1.035,0.753 0,0.753 0.641,0 1.69,-0.339 2.33,-0.753 1.036,-0.669 1.036,-0.753 0,-0.753 -0.64,0 -1.689,0.339 -2.33,0.753 m -19.681,1.844 c 3.233,0.398 7.785,0.395 10.874,-0.008 4.789,-0.624 4.242,-0.691 -5.562,-0.685 -9.985,0.007 -10.419,0.063 -5.312,0.693"
         inkscape:connector-curvature="0"
         style="fill:#494848;fill-rule:evenodd;stroke:none" />
      <path
         id="path4"
         d="m 211.718,39.637 c -5.921,2.955 -8.87,8.074 -7.906,13.728 4.344,25.473 11.37,34.113 22.942,28.21 8.39,-4.28 9.126,-11.93 3.043,-31.637 -3.005,-9.733 -10.574,-14.046 -18.079,-10.301 m 84.935,13.888 c -2.29,1.247 -8.498,8.987 -8.498,10.595 0,0.25 -1,1.916 -2.223,3.701 -8.575,12.52 -6.93,22.579 4.223,25.821 8.282,2.408 14.599,-3.282 23.766,-21.409 6.345,-12.545 -5.34,-25.204 -17.268,-18.708 M 141.235,91.141 c -8.57,3.809 -10.533,15.665 -3.639,21.985 3.137,2.876 20.249,12.693 22.347,12.82 13.266,0.802 20.46,-13.075 11.38,-21.953 -2.227,-2.177 -14.057,-9.786 -19.634,-12.629 -2.858,-1.457 -7.456,-1.555 -10.454,-0.223 m 86.338,10.122 c -20.27,5.437 -38.504,22.793 -44.282,42.149 -1.222,4.095 -0.838,4.637 3.683,5.19 6.43,0.786 10.939,1.966 15.513,4.058 4.646,2.125 6.445,1.615 6.445,-1.826 0,-2.295 5.024,-10.393 8.775,-14.144 29.555,-29.556 76.836,4.67 58.963,42.682 -2.309,4.911 -10.207,13.174 -14.861,15.548 -3.993,2.037 -4.112,1.575 2.074,8.098 2.884,3.04 6.573,7.537 8.197,9.993 1.625,2.456 3.057,4.465 3.182,4.465 6.134,0 25.892,-23.412 28.475,-33.741 0.327,-1.307 1.162,-4.454 1.856,-6.993 3.125,-11.432 0.907,-31.221 -4.685,-41.823 -1.174,-2.225 -2.54,-4.81 -3.035,-5.744 -0.792,-1.494 -4.192,-5.732 -8.668,-10.804 -5.288,-5.992 -17.767,-13.755 -25.904,-16.115 -8.842,-2.564 -10.718,-2.829 -19.806,-2.797 -7.175,0.025 -10.84,0.44 -15.922,1.804 m 119.611,22.387 c -20.452,4.873 -26.431,9.951 -23.289,19.778 2.801,8.761 9.254,11.117 21.91,7.997 16.639,-4.1 20.594,-6.572 21.358,-13.347 1.372,-12.173 -6.272,-17.693 -19.979,-14.428 M 320,200.348 c -6.033,3.207 -8.906,9.488 -7.098,15.52 2.396,7.999 24.667,21.105 31.831,18.732 13.035,-4.318 12.895,-17.592 -0.277,-26.251 -14.189,-9.327 -18.999,-10.901 -24.456,-8.001 m -39.546,73.927 c -1.024,3.395 -2.158,6.355 -2.518,6.577 -0.839,0.519 -0.858,3.42 -0.023,3.42 2.876,0 6.441,-7.605 5.801,-12.377 -0.645,-4.806 -1.216,-4.388 -3.26,2.38"
         inkscape:connector-curvature="0"
         style="fill:#ffdb00;fill-rule:evenodd;stroke:none" />
    </g>
  </g>
</svg>
